<?xml version="1.0" standalone="no"?>
<!DOCTYPE svg PUBLIC "-//W3C//DTD SVG 20010904//EN"
 "http://www.w3.org/TR/2001/REC-SVG-20010904/DTD/svg10.dtd">
<svg version="1.0" xmlns="http://www.w3.org/2000/svg"
 width="338.000000pt" height="237.000000pt" viewBox="0 0 338.000000 237.000000"
 preserveAspectRatio="xMidYMid meet">

<g transform="translate(0.000000,237.000000) scale(0.100000,-0.100000)"
fill="#000000" stroke="none">
<path d="M573 1603 c15 -2 37 -2 50 0 12 2 0 4 -28 4 -27 0 -38 -2 -22 -4z"/>
<path d="M998 1603 c67 -2 177 -2 245 0 67 1 12 3 -123 3 -135 0 -190 -2 -122
-3z"/>
<path d="M1638 1603 c23 -2 61 -2 85 0 23 2 4 4 -43 4 -47 0 -66 -2 -42 -4z"/>
<path d="M1968 1603 c28 -2 76 -2 105 0 28 2 5 3 -53 3 -58 0 -81 -1 -52 -3z"/>
<path d="M481 1564 c0 -11 3 -14 6 -6 3 7 2 16 -1 19 -3 4 -6 -2 -5 -13z"/>
<path d="M484 1290 c0 -118 2 -167 3 -107 2 59 2 155 0 215 -1 59 -3 10 -3
-108z"/>
<path d="M2190 1230 l0 -230 -850 0 -851 0 3 -57 c3 -52 5 -58 26 -61 23 -3
23 -4 6 -23 -17 -18 -16 -19 21 -19 22 0 46 7 57 17 17 15 18 14 18 -27 0 -30
7 -53 24 -74 l23 -31 -91 1 -91 1 85 -6 85 -5 -90 -7 -90 -6 90 1 c50 1 99 6
109 11 12 5 17 5 14 -1 -4 -5 48 -10 125 -11 121 -2 129 -1 103 12 -33 18 -39
19 -31 5 4 -7 -3 -7 -20 0 -18 7 -33 7 -45 0 -36 -19 -38 -10 -3 25 32 32 35
39 31 85 -2 36 1 50 10 50 9 0 11 -9 7 -33 -7 -36 4 -70 35 -106 16 -19 37
-25 110 -35 49 -7 88 -10 86 -7 -2 3 129 5 292 3 280 -3 296 -2 273 14 -19 14
-25 14 -32 3 -7 -11 -9 -11 -9 -1 0 11 -53 13 -277 9 -153 -2 -289 -7 -303
-10 -14 -4 -18 -4 -10 -1 43 19 81 100 66 139 -3 8 -1 15 3 15 5 0 11 -7 15
-15 3 -10 19 -15 46 -15 40 0 52 12 26 27 -8 4 66 8 164 8 113 0 175 -4 169
-9 -18 -19 -9 -26 30 -26 25 0 41 5 45 15 11 28 22 15 18 -22 -7 -79 64 -135
149 -119 47 9 84 64 83 123 0 24 3 43 8 43 4 0 8 -22 8 -49 0 -52 25 -95 64
-111 l21 -9 -21 0 c-11 -1 -24 2 -28 6 -16 16 -81 12 -105 -6 l-25 -19 32 3
c18 1 36 6 40 10 4 5 1 5 -5 1 -7 -4 -13 -2 -13 3 0 6 7 11 15 11 8 0 15 -4
15 -9 0 -5 7 -11 14 -14 11 -4 13 -1 9 11 -6 14 -4 15 9 4 19 -16 122 -6 155
14 35 22 56 71 50 117 l-5 39 22 -21 c15 -14 35 -21 61 -21 37 0 38 0 20 20
-18 20 -17 20 20 20 33 0 36 2 24 16 -15 18 -15 18 -17 337 -1 143 -6 227 -12
227 -6 0 -10 -83 -10 -230z m-1422 -356 c32 -22 27 -73 -9 -93 -24 -13 -29
-13 -53 2 -34 22 -36 69 -4 91 28 20 38 20 66 0z m236 5 c28 -13 38 -41 26
-74 -16 -43 -79 -43 -99 1 -12 28 -2 56 27 73 21 13 17 13 46 0z m754 -5 c51
-36 8 -117 -51 -95 -45 17 -47 83 -4 101 30 12 30 12 55 -6z m252 -4 c11 -11
20 -29 20 -40 0 -22 -33 -60 -53 -60 -52 0 -77 75 -35 104 30 21 44 20 68 -4z
m-767 -157 c-24 -2 -62 -2 -85 0 -24 2 -5 4 42 4 47 0 66 -2 43 -4z m260 0
c-13 -2 -33 -2 -45 0 -13 2 -3 4 22 4 25 0 35 -2 23 -4z"/>
<path d="M690 830 c0 -5 5 -10 10 -10 6 0 10 5 10 10 0 6 -4 10 -10 10 -5 0
-10 -4 -10 -10z"/>
<path d="M760 830 c0 -5 5 -10 10 -10 6 0 10 5 10 10 0 6 -4 10 -10 10 -5 0
-10 -4 -10 -10z"/>
<path d="M975 790 c3 -5 8 -10 11 -10 2 0 4 5 4 10 0 6 -5 10 -11 10 -5 0 -7
-4 -4 -10z"/>
<path d="M1680 830 c0 -5 5 -10 10 -10 6 0 10 5 10 10 0 6 -4 10 -10 10 -5 0
-10 -4 -10 -10z"/>
<path d="M1950 860 c-8 -5 -10 -10 -5 -10 6 0 17 5 25 10 8 5 11 10 5 10 -5 0
-17 -5 -25 -10z"/>
<path d="M1930 830 c0 -5 5 -10 10 -10 6 0 10 5 10 10 0 6 -4 10 -10 10 -5 0
-10 -4 -10 -10z"/>
<path d="M2000 830 c0 -5 5 -10 10 -10 6 0 10 5 10 10 0 6 -4 10 -10 10 -5 0
-10 -4 -10 -10z"/>
<path d="M1990 799 c0 -5 5 -7 10 -4 6 3 10 8 10 11 0 2 -4 4 -10 4 -5 0 -10
-5 -10 -11z"/>
<path d="M2250 1450 c0 -5 25 -10 55 -10 30 0 55 5 55 10 0 6 -25 10 -55 10
-30 0 -55 -4 -55 -10z"/>
<path d="M2498 1453 c7 -3 16 -2 19 1 4 3 -2 6 -13 5 -11 0 -14 -3 -6 -6z"/>
<path d="M2256 1421 c-11 -17 53 -28 88 -15 9 3 16 10 16 15 0 12 -97 12 -104
0z"/>
<path d="M2588 1422 l-98 -3 0 -134 0 -135 116 0 116 0 -5 33 c-3 17 -9 75
-13 127 -3 52 -9 100 -13 105 -3 6 -46 9 -103 7z"/>
<path d="M2404 1330 c0 -52 1 -74 3 -47 2 26 2 68 0 95 -2 26 -3 4 -3 -48z"/>
<path d="M2803 1373 c4 -27 9 -87 13 -135 l7 -88 48 0 c32 0 49 4 49 12 0 7
-19 68 -42 135 -35 98 -47 123 -62 123 -16 0 -18 -6 -13 -47z"/>
<path d="M2250 1380 c0 -5 25 -10 55 -10 30 0 55 5 55 10 0 6 -25 10 -55 10
-30 0 -55 -4 -55 -10z"/>
<path d="M2404 1090 c0 -52 1 -74 3 -47 2 26 2 68 0 95 -2 26 -3 4 -3 -48z"/>
<path d="M2463 1055 c0 -27 2 -38 4 -22 2 15 2 37 0 50 -2 12 -4 0 -4 -28z"/>
<path d="M481 1054 c0 -11 3 -14 6 -6 3 7 2 16 -1 19 -3 4 -6 -2 -5 -13z"/>
<path d="M2556 1022 c-2 -4 12 -6 32 -4 56 5 62 10 15 11 -23 1 -44 -3 -47 -7z"/>
<path d="M2505 1000 c-3 -6 1 -7 9 -4 18 7 21 14 7 14 -6 0 -13 -4 -16 -10z"/>
<path d="M2401 974 c0 -11 3 -14 6 -6 3 7 2 16 -1 19 -3 4 -6 -2 -5 -13z"/>
<path d="M2525 960 c-29 -19 -64 -58 -65 -72 0 -5 7 -8 15 -8 11 0 15 -12 15
-51 0 -45 4 -55 34 -85 29 -29 41 -34 81 -34 40 0 52 5 82 35 32 32 35 39 31
85 -2 42 0 50 15 50 21 0 21 4 1 35 -41 63 -147 86 -209 45z m115 -90 c11 -11
20 -29 20 -40 0 -22 -33 -60 -53 -60 -27 0 -57 31 -57 60 0 18 8 34 22 44 30
21 44 20 68 -4z"/>
<path d="M2560 830 c0 -5 5 -10 10 -10 6 0 10 5 10 10 0 6 -4 10 -10 10 -5 0
-10 -4 -10 -10z"/>
<path d="M2630 830 c0 -5 5 -10 10 -10 6 0 10 5 10 10 0 6 -4 10 -10 10 -5 0
-10 -4 -10 -10z"/>
<path d="M2586 796 c10 -8 21 -12 24 -10 5 6 -21 24 -34 24 -6 0 -1 -6 10 -14z"/>
<path d="M2042 716 c-34 -20 -35 -24 -5 -18 15 3 31 10 35 16 5 8 8 7 8 -1 0
-10 49 -13 211 -13 137 0 208 3 204 10 -3 6 -1 10 4 10 6 0 11 -4 11 -9 0 -5
11 -11 25 -13 33 -7 32 4 -2 19 -40 17 -460 16 -491 -1z"/>
<path d="M2678 719 c-37 -14 -36 -27 2 -21 17 2 30 8 30 13 0 5 21 8 48 7 l47
-1 -45 -7 c-29 -5 1 -7 85 -6 81 1 129 5 128 11 -4 14 -260 17 -295 4z m265
-6 c-13 -2 -33 -2 -45 0 -13 2 -3 4 22 4 25 0 35 -2 23 -4z"/>
</g>
</svg>
