<svg width="590" height="121" viewBox="0 0 590 121" fill="none" xmlns="http://www.w3.org/2000/svg">
<path d="M0 0H590L494.948 120H0V0Z" fill="#00B2FF" fill-opacity="0.61"/>
<g style="mix-blend-mode:darken">
<path d="M6 120.251C6 24.2499 57.3973 13.0653 83.0959 19.4731L63 106.251H141.5L119 19.4731H273L212.5 106.251L327 19.4731V99.25H408V120.251" stroke="black" stroke-width="11"/>
</g>
<path d="M360.108 17.432L353.016 24.776H357.48L357.156 26.252H351.576L344.628 33.452H357.12L356.796 35H341.856L342.108 33.776L349.344 26.252H345.312L345.6 24.74H350.82L357.552 17.756H345.528L345.816 16.208H360.36L360.108 17.432ZM368.85 9.8H378.21C380.682 9.8 382.794 10.22 384.546 11.06C386.322 11.9 387.666 13.088 388.578 14.624C389.49 16.16 389.946 17.948 389.946 19.988C389.946 22.892 389.298 25.484 388.002 27.764C386.706 30.044 384.87 31.82 382.494 33.092C380.118 34.364 377.37 35 374.25 35H363.81L368.85 9.8ZM374.358 33.344C377.118 33.344 379.53 32.78 381.594 31.652C383.682 30.524 385.278 28.952 386.382 26.936C387.51 24.92 388.074 22.628 388.074 20.06C388.074 17.396 387.222 15.296 385.518 13.76C383.814 12.224 381.306 11.456 377.994 11.456H370.362L365.97 33.344H374.358ZM403.744 16.064C406.216 16.064 408.16 16.772 409.576 18.188C411.016 19.58 411.736 21.536 411.736 24.056L411.7 24.812L395.284 27.908C395.404 29.708 396.052 31.1 397.228 32.084C398.404 33.044 400.06 33.524 402.196 33.524C403.516 33.524 404.728 33.308 405.832 32.876C406.96 32.42 407.896 31.796 408.64 31.004L409.468 32.264C408.628 33.176 407.56 33.884 406.264 34.388C404.968 34.892 403.564 35.144 402.052 35.144C399.388 35.144 397.288 34.448 395.752 33.056C394.24 31.664 393.484 29.732 393.484 27.26C393.484 25.148 393.928 23.24 394.816 21.536C395.704 19.832 396.928 18.5 398.488 17.54C400.048 16.556 401.8 16.064 403.744 16.064ZM403.708 17.612C402.148 17.612 400.744 17.996 399.496 18.764C398.248 19.508 397.252 20.552 396.508 21.896C395.764 23.24 395.344 24.776 395.248 26.504L410.044 23.696C410.068 21.8 409.504 20.312 408.352 19.232C407.224 18.152 405.676 17.612 403.708 17.612ZM436.248 33.596C436.968 33.596 437.592 33.476 438.12 33.236L437.976 34.748C437.328 35.012 436.596 35.144 435.78 35.144C434.484 35.144 433.488 34.796 432.792 34.1C432.096 33.38 431.772 32.408 431.82 31.184C430.908 32.456 429.768 33.44 428.4 34.136C427.032 34.808 425.496 35.144 423.792 35.144C421.344 35.144 419.376 34.448 417.888 33.056C416.424 31.64 415.692 29.732 415.692 27.332C415.692 25.196 416.148 23.276 417.06 21.572C417.972 19.844 419.232 18.5 420.84 17.54C422.472 16.556 424.296 16.064 426.312 16.064C428.256 16.064 429.864 16.484 431.136 17.324C432.408 18.164 433.272 19.352 433.728 20.888L434.664 16.208H436.464L433.728 29.816C433.656 30.248 433.62 30.644 433.62 31.004C433.62 31.844 433.836 32.492 434.268 32.948C434.724 33.38 435.384 33.596 436.248 33.596ZM424.152 33.524C425.832 33.524 427.332 33.116 428.652 32.3C429.996 31.484 431.052 30.356 431.82 28.916C432.588 27.452 432.972 25.808 432.972 23.984C432.972 21.992 432.384 20.444 431.208 19.34C430.056 18.236 428.424 17.684 426.312 17.684C424.632 17.684 423.12 18.104 421.776 18.944C420.456 19.76 419.412 20.9 418.644 22.364C417.876 23.804 417.492 25.424 417.492 27.224C417.492 29.216 418.068 30.764 419.22 31.868C420.396 32.972 422.04 33.524 424.152 33.524ZM462.673 33.596C463.393 33.596 464.017 33.476 464.545 33.236L464.401 34.748C463.753 35.012 463.021 35.144 462.205 35.144C460.933 35.144 459.937 34.808 459.217 34.136C458.521 33.44 458.185 32.492 458.209 31.292C457.297 32.516 456.157 33.464 454.789 34.136C453.421 34.808 451.909 35.144 450.253 35.144C447.805 35.144 445.837 34.448 444.349 33.056C442.885 31.64 442.153 29.732 442.153 27.332C442.153 25.196 442.609 23.276 443.521 21.572C444.433 19.844 445.693 18.5 447.301 17.54C448.933 16.556 450.757 16.064 452.773 16.064C454.717 16.064 456.313 16.484 457.561 17.324C458.833 18.14 459.697 19.304 460.153 20.816L462.673 8.288H464.473L460.189 29.816C460.093 30.2 460.045 30.608 460.045 31.04C460.045 31.88 460.261 32.516 460.693 32.948C461.149 33.38 461.809 33.596 462.673 33.596ZM450.613 33.524C452.293 33.524 453.793 33.116 455.113 32.3C456.457 31.484 457.513 30.356 458.281 28.916C459.049 27.452 459.433 25.808 459.433 23.984C459.433 21.992 458.845 20.444 457.669 19.34C456.517 18.236 454.885 17.684 452.773 17.684C451.093 17.684 449.581 18.104 448.237 18.944C446.917 19.76 445.873 20.9 445.105 22.364C444.337 23.804 443.953 25.424 443.953 27.224C443.953 29.216 444.529 30.764 445.681 31.868C446.857 32.972 448.501 33.524 450.613 33.524ZM483.591 11.312C478.455 11.312 475.443 13.58 474.555 18.116L473.727 22.22H486.183L485.823 23.876H473.403L471.171 35H469.299L472.683 18.08C473.787 12.44 477.447 9.62 483.663 9.62C485.079 9.62 486.399 9.8 487.623 10.16C488.871 10.52 489.915 11.048 490.755 11.744L489.819 13.184C488.331 11.936 486.255 11.312 483.591 11.312ZM498.259 35.144C495.715 35.144 493.687 34.436 492.175 33.02C490.687 31.604 489.943 29.708 489.943 27.332C489.943 25.196 490.399 23.276 491.311 21.572C492.247 19.868 493.531 18.524 495.163 17.54C496.795 16.556 498.643 16.064 500.707 16.064C503.251 16.064 505.267 16.772 506.755 18.188C508.267 19.58 509.023 21.476 509.023 23.876C509.023 26.012 508.555 27.944 507.619 29.672C506.707 31.376 505.435 32.72 503.803 33.704C502.171 34.664 500.323 35.144 498.259 35.144ZM498.403 33.524C500.083 33.524 501.583 33.116 502.903 32.3C504.247 31.484 505.303 30.356 506.071 28.916C506.839 27.452 507.223 25.808 507.223 23.984C507.223 21.992 506.635 20.444 505.459 19.34C504.307 18.236 502.675 17.684 500.563 17.684C498.883 17.684 497.371 18.104 496.027 18.944C494.707 19.76 493.663 20.9 492.895 22.364C492.127 23.804 491.743 25.424 491.743 27.224C491.743 29.216 492.319 30.764 493.471 31.868C494.647 32.972 496.291 33.524 498.403 33.524ZM521.18 25.424L526.76 35H524.816L519.992 26.612L511.892 35H509.732L519.2 25.28L513.944 16.208H515.852L520.388 24.056L527.984 16.208H530.108L521.18 25.424ZM540.68 25.424L546.26 35H544.316L539.492 26.612L531.392 35H529.232L538.7 25.28L533.444 16.208H535.352L539.888 24.056L547.484 16.208H549.608L540.68 25.424ZM358.596 55.312C353.46 55.312 350.448 57.58 349.56 62.116L348.732 66.22H361.188L360.828 67.876H348.408L346.176 79H344.304L347.688 62.08C348.792 56.44 352.452 53.62 358.668 53.62C360.084 53.62 361.404 53.8 362.628 54.16C363.876 54.52 364.92 55.048 365.76 55.744L364.824 57.184C363.336 55.936 361.26 55.312 358.596 55.312ZM361.128 86.128C360.36 86.128 359.652 86.02 359.004 85.804C358.332 85.588 357.768 85.288 357.312 84.904L358.248 83.536C359.016 84.232 360 84.58 361.2 84.58C362.304 84.58 363.18 84.268 363.828 83.644C364.5 83.02 364.968 82.048 365.232 80.728L369.336 60.208H371.136L366.996 80.872C366.66 82.648 366 83.968 365.016 84.832C364.056 85.696 362.76 86.128 361.128 86.128ZM371.316 55.636C370.932 55.636 370.608 55.504 370.344 55.24C370.08 54.976 369.948 54.664 369.948 54.304C369.948 53.872 370.092 53.5 370.38 53.188C370.692 52.876 371.076 52.72 371.532 52.72C371.916 52.72 372.24 52.852 372.504 53.116C372.792 53.38 372.936 53.692 372.936 54.052C372.936 54.508 372.78 54.892 372.468 55.204C372.156 55.492 371.772 55.636 371.316 55.636ZM396.075 77.596C396.795 77.596 397.419 77.476 397.947 77.236L397.803 78.748C397.155 79.012 396.423 79.144 395.607 79.144C394.311 79.144 393.315 78.796 392.619 78.1C391.923 77.38 391.599 76.408 391.647 75.184C390.735 76.456 389.595 77.44 388.227 78.136C386.859 78.808 385.323 79.144 383.619 79.144C381.171 79.144 379.203 78.448 377.715 77.056C376.251 75.64 375.519 73.732 375.519 71.332C375.519 69.196 375.975 67.276 376.887 65.572C377.799 63.844 379.059 62.5 380.667 61.54C382.299 60.556 384.123 60.064 386.139 60.064C388.083 60.064 389.691 60.484 390.963 61.324C392.235 62.164 393.099 63.352 393.555 64.888L394.491 60.208H396.291L393.555 73.816C393.483 74.248 393.447 74.644 393.447 75.004C393.447 75.844 393.663 76.492 394.095 76.948C394.551 77.38 395.211 77.596 396.075 77.596ZM383.979 77.524C385.659 77.524 387.159 77.116 388.479 76.3C389.823 75.484 390.879 74.356 391.647 72.916C392.415 71.452 392.799 69.808 392.799 67.984C392.799 65.992 392.211 64.444 391.035 63.34C389.883 62.236 388.251 61.684 386.139 61.684C384.459 61.684 382.947 62.104 381.603 62.944C380.283 63.76 379.239 64.9 378.471 66.364C377.703 67.804 377.319 69.424 377.319 71.224C377.319 73.216 377.895 74.764 379.047 75.868C380.223 76.972 381.867 77.524 383.979 77.524ZM422.537 77.596C423.257 77.596 423.881 77.476 424.409 77.236L424.265 78.748C423.617 79.012 422.885 79.144 422.069 79.144C420.773 79.144 419.777 78.796 419.081 78.1C418.385 77.38 418.061 76.408 418.109 75.184C417.197 76.456 416.057 77.44 414.689 78.136C413.321 78.808 411.785 79.144 410.081 79.144C407.633 79.144 405.665 78.448 404.177 77.056C402.713 75.64 401.981 73.732 401.981 71.332C401.981 69.196 402.437 67.276 403.349 65.572C404.261 63.844 405.521 62.5 407.129 61.54C408.761 60.556 410.585 60.064 412.601 60.064C414.545 60.064 416.153 60.484 417.425 61.324C418.697 62.164 419.561 63.352 420.017 64.888L420.953 60.208H422.753L420.017 73.816C419.945 74.248 419.909 74.644 419.909 75.004C419.909 75.844 420.125 76.492 420.557 76.948C421.013 77.38 421.673 77.596 422.537 77.596ZM410.441 77.524C412.121 77.524 413.621 77.116 414.941 76.3C416.285 75.484 417.341 74.356 418.109 72.916C418.877 71.452 419.261 69.808 419.261 67.984C419.261 65.992 418.673 64.444 417.497 63.34C416.345 62.236 414.713 61.684 412.601 61.684C410.921 61.684 409.409 62.104 408.065 62.944C406.745 63.76 405.701 64.9 404.933 66.364C404.165 67.804 403.781 69.424 403.781 71.224C403.781 73.216 404.357 74.764 405.509 75.868C406.685 76.972 408.329 77.524 410.441 77.524ZM438.882 67.876L445.65 79H443.562L437.478 68.956L431.646 73.456L430.53 79H428.73L434.058 52.288H435.858L432.114 71.116L446.118 60.208H448.746L438.882 67.876ZM446.021 86.128C445.253 86.128 444.545 86.02 443.897 85.804C443.225 85.588 442.661 85.288 442.205 84.904L443.141 83.536C443.909 84.232 444.893 84.58 446.093 84.58C447.197 84.58 448.073 84.268 448.721 83.644C449.393 83.02 449.861 82.048 450.125 80.728L454.229 60.208H456.029L451.889 80.872C451.553 82.648 450.893 83.968 449.909 84.832C448.949 85.696 447.653 86.128 446.021 86.128ZM456.209 55.636C455.825 55.636 455.501 55.504 455.237 55.24C454.973 54.976 454.841 54.664 454.841 54.304C454.841 53.872 454.985 53.5 455.273 53.188C455.585 52.876 455.969 52.72 456.425 52.72C456.809 52.72 457.133 52.852 457.397 53.116C457.685 53.38 457.829 53.692 457.829 54.052C457.829 54.508 457.673 54.892 457.361 55.204C457.049 55.492 456.665 55.636 456.209 55.636ZM473.264 60.064C475.4 60.064 477.044 60.604 478.196 61.684C479.348 62.74 479.924 64.204 479.924 66.076C479.924 66.724 479.852 67.408 479.708 68.128L477.548 79H475.748L477.908 68.128C478.028 67.576 478.088 66.976 478.088 66.328C478.088 64.84 477.632 63.7 476.72 62.908C475.832 62.092 474.524 61.684 472.796 61.684C470.636 61.684 468.836 62.296 467.396 63.52C465.956 64.72 465.008 66.472 464.552 68.776L462.5 79H460.7L464.444 60.208H466.208L465.488 63.772C466.376 62.524 467.48 61.6 468.8 61C470.144 60.376 471.632 60.064 473.264 60.064Z" fill="black"/>
</svg>
