<?xml version="1.0" encoding="iso-8859-1"?>
<!-- Generator: Adobe Illustrator 18.0.0, SVG Export Plug-In . SVG Version: 6.00 Build 0)  -->
<!DOCTYPE svg PUBLIC "-//W3C//DTD SVG 1.1//EN" "http://www.w3.org/Graphics/SVG/1.1/DTD/svg11.dtd">
<svg version="1.1" id="Capa_1" xmlns="http://www.w3.org/2000/svg" xmlns:xlink="http://www.w3.org/1999/xlink" x="0px" y="0px"
	 viewBox="0 0 59.936 59.936" style="enable-background:new 0 0 59.936 59.936;" xml:space="preserve">
<g>
	<path d="M20.968,38.296v-2.36h1c0.553,0,1-0.447,1-1s-0.447-1-1-1h-1h-1h-14h-1h-1c-0.553,0-1,0.447-1,1s0.447,1,1,1h1v2.36
		c0,3.535,1.845,6.748,4.827,8.64c-2.981,1.892-4.827,5.105-4.827,8.64v2.36h-1c-0.553,0-1,0.447-1,1s0.447,1,1,1h1h1h14h1h1
		c0.553,0,1-0.447,1-1s-0.447-1-1-1h-1v-2.36c0-3.535-1.845-6.748-4.827-8.64C19.123,45.043,20.968,41.831,20.968,38.296z
		 M18.968,55.575v2.36h-12v-2.36c0-3.319,2.033-6.298,5.197-7.64h1.605C16.935,49.277,18.968,52.256,18.968,55.575z M13.771,45.936
		h-1.605c-3.164-1.342-5.197-4.32-5.197-7.64v-2.36h12v2.36C18.968,41.615,16.935,44.594,13.771,45.936z"/>
	<path d="M56.389,40.904c-2.008-3.796-8.981-7.912-9.287-8.092c-0.896-0.51-1.831-0.78-2.706-0.78c-1.301,0-2.366,0.596-3.011,1.68
		c-1.02,1.22-2.285,2.646-2.592,2.867c-2.376,1.612-4.237,1.429-6.294-0.629L21.012,24.464c-2.045-2.045-2.233-3.928-0.631-6.291
		c0.224-0.31,1.649-1.575,2.87-2.596c0.778-0.463,1.312-1.15,1.545-1.995c0.307-1.106,0.071-2.463-0.652-3.732
		c-0.173-0.296-4.29-7.269-8.085-9.276C15.35,0.198,14.553,0,13.752,0c-1.319,0-2.558,0.514-3.49,1.445L7.726,3.982
		c-4.014,4.013-5.467,8.562-4.321,13.52c0.867,3.75,3.259,7.72,7.083,11.814c1.018-0.24,2.074-0.38,3.164-0.38
		c7.607,0,13.796,6.188,13.796,13.796c0,1.101-0.143,2.167-0.388,3.193c5.502,5.311,10.752,8.011,15.614,8.011
		c3.721,0,7.189-1.581,10.307-4.699l2.537-2.537C57.058,45.159,57.409,42.83,56.389,40.904z"/>
</g>
<g>
</g>
<g>
</g>
<g>
</g>
<g>
</g>
<g>
</g>
<g>
</g>
<g>
</g>
<g>
</g>
<g>
</g>
<g>
</g>
<g>
</g>
<g>
</g>
<g>
</g>
<g>
</g>
<g>
</g>
</svg>
